<svg width="83" height="84" viewBox="0 0 83 84" fill="none" xmlns="http://www.w3.org/2000/svg">
<path d="M62.2482 0H20.7518C9.28692 0 0 9.40304 0 21.0018V62.9982C0 74.597 9.28692 84 20.7518 84H62.2482C73.749 84 83 74.597 83 62.9982V21.0018C83 9.40304 73.7131 0 62.2482 0ZM62.2482 6.19503C64.1915 6.2118 66.1124 6.60816 67.9011 7.36145C69.6899 8.11474 71.3115 9.2102 72.6732 10.5852C74.035 11.9603 75.1102 13.588 75.8374 15.3753C76.5647 17.1626 76.9298 19.0745 76.9118 21.0018V62.9982C76.9298 64.9255 76.5647 66.8374 75.8374 68.6247C75.1102 70.412 74.035 72.0397 72.6732 73.4148C71.3115 74.7898 69.6899 75.8853 67.9011 76.6385C66.1124 77.3918 64.1915 77.7882 62.2482 77.805H20.7518C16.8322 77.7636 13.0894 76.181 10.3454 73.4048C7.60138 70.6285 6.08059 66.8857 6.117 62.9982V21.0018C6.08059 17.1143 7.60138 13.3715 10.3454 10.5952C13.0894 7.81902 16.8322 6.23642 20.7518 6.19503H62.2482Z" fill="#2E2E36"/>
<path d="M39.0238 15.7266H46.8444L28.2849 68.2738H20.4644L39.0238 15.7266Z" fill="#DA0175"/>
<path d="M54.7224 15.7266H62.5358L43.9763 68.2738H36.1558L54.7224 15.7266Z" fill="#DA0175"/>
</svg>
